<svg xmlns="http://www.w3.org/2000/svg" viewBox="0 0 749.34 142.51"><defs><style>.cls-1{fill:#2e313b;}.cls-2{fill:#fff;}.cls-3{fill:#f9cc37;}.cls-4,.cls-6{isolation:isolate;}.cls-5,.cls-6{fill:#999;}.cls-6{font-size:38.32px;font-family:Montserrat-Regular, Montserrat;letter-spacing:0.03em;}.cls-7{fill:#ee1f46;}</style></defs><g id="Layer_2" data-name="Layer 2"><g id="Layer_1-2" data-name="Layer 1"><path class="cls-1" d="M511.43,39.9q-5.1-4.35-16.5-6.6a61.74,61.74,0,0,1-9.6-2.6,20.22,20.22,0,0,1-5.8-3.1,9,9,0,0,1-2.9-3.8,11.3,11.3,0,0,1-.8-4.8v-.2a11.25,11.25,0,0,1,1.1-4.8,12.19,12.19,0,0,1,3.2-3.9,15.61,15.61,0,0,1,5.1-2.7,21.14,21.14,0,0,1,6.6-1A29.53,29.53,0,0,1,502,8.1a28.54,28.54,0,0,1,7.8,4.4,2.2,2.2,0,0,0,3-.4l.3-.4a2.39,2.39,0,0,0,.5-1.4,2.14,2.14,0,0,0-.9-1.8,39.76,39.76,0,0,0-8.3-4.6,34.69,34.69,0,0,0-12.4-2,26.35,26.35,0,0,0-8.4,1.3,20.36,20.36,0,0,0-6.7,3.8,18.12,18.12,0,0,0-4.4,5.5,14.49,14.49,0,0,0-1.6,6.8v.2a19.33,19.33,0,0,0,1.2,6.7,13.15,13.15,0,0,0,3.9,5.1,25.81,25.81,0,0,0,6.9,3.8A72.52,72.52,0,0,0,493,38a59.65,59.65,0,0,1,9.2,2.5,20.19,20.19,0,0,1,5.6,3,9,9,0,0,1,2.9,3.8,15,15,0,0,1,.8,4.7v.2a11.67,11.67,0,0,1-1.2,5.2,12.25,12.25,0,0,1-3.4,4.1,15.66,15.66,0,0,1-5.3,2.7,22.4,22.4,0,0,1-6.8,1,39.06,39.06,0,0,1-6.8-.6,31.21,31.21,0,0,1-5.9-1.9,29.36,29.36,0,0,1-5.5-3c-1.3-.9-2.6-1.9-3.8-2.9a2.08,2.08,0,0,0-3,.2l-.3.3a2,2,0,0,0-.6,1.4,2.46,2.46,0,0,0,.8,1.7,42.53,42.53,0,0,0,10.6,6.5,36.15,36.15,0,0,0,14.2,2.6,29.32,29.32,0,0,0,8.8-1.3,21.26,21.26,0,0,0,6.9-3.8,17.4,17.4,0,0,0,4.5-5.6,15.55,15.55,0,0,0,1.6-7.3v-.2a13.49,13.49,0,0,0-4.9-11.4Z"/><path class="cls-1" d="M573.93,20.7h-.2a2.14,2.14,0,0,0-2.1,2.2V31a35.71,35.71,0,0,0-3.4-4.3,26,26,0,0,0-4.3-3.8,18.61,18.61,0,0,0-5.4-2.4,20.66,20.66,0,0,0-6.6-.9,22.62,22.62,0,0,0-8.5,1.7,21,21,0,0,0-7.5,5,23,23,0,0,0-5.3,7.8,25.18,25.18,0,0,0-2,10.5v.2a25.18,25.18,0,0,0,2,10.5,23.67,23.67,0,0,0,5.4,7.9,23.18,23.18,0,0,0,7.5,4.9,22.62,22.62,0,0,0,8.5,1.7,20.52,20.52,0,0,0,6.5-1,26.46,26.46,0,0,0,5.3-2.7,22.12,22.12,0,0,0,4.3-3.8,38.65,38.65,0,0,0,3.5-4.5V81.4a2.22,2.22,0,0,0,2.2,2.2h.2a2.22,2.22,0,0,0,2.2-2.2V22.8a2.45,2.45,0,0,0-2.3-2.1Zm-2.2,24a22,22,0,0,1-1.6,8.4,22,22,0,0,1-4.4,6.5,19.33,19.33,0,0,1-6.3,4.2,18.27,18.27,0,0,1-14.5,0,18.42,18.42,0,0,1-10.1-10.6,24.55,24.55,0,0,1-1.5-8.5v-.2a23.28,23.28,0,0,1,1.5-8.6,17.76,17.76,0,0,1,4-6.4,17.55,17.55,0,0,1,6-4,20.69,20.69,0,0,1,7.4-1.4,18.35,18.35,0,0,1,7.3,1.5,20.12,20.12,0,0,1,12.3,19.1C571.73,44.5,571.73,44.7,571.73,44.7Z"/><path class="cls-1" d="M631.43,20.7h-.2a2.22,2.22,0,0,0-2.2,2.2V48.4a18,18,0,0,1-1.3,6.9,15.72,15.72,0,0,1-8.8,8.9,16.4,16.4,0,0,1-6.5,1.3,14.48,14.48,0,0,1-11.3-4.4,17.12,17.12,0,0,1-3.9-11.9V22.9a2.22,2.22,0,0,0-2.2-2.2h-.2a2.22,2.22,0,0,0-2.2,2.2V50a23.38,23.38,0,0,0,1.3,7.9,17.38,17.38,0,0,0,9.8,10.3,20.36,20.36,0,0,0,8.1,1.4,17.68,17.68,0,0,0,10.7-2.9,21.72,21.72,0,0,0,2.9-2.4,2.36,2.36,0,0,1,1.6-.7,2.22,2.22,0,0,1,2.2,2.2v.5a2.22,2.22,0,0,0,2.2,2.2h.2a2.22,2.22,0,0,0,2.2-2.2V22.8a2.56,2.56,0,0,0-2.4-2.1Z"/><path class="cls-1" d="M683.53,25.2c-3.5-3.5-8.5-5.3-15-5.3a34.14,34.14,0,0,0-9,1.1,44.4,44.4,0,0,0-6.1,2.2,2.09,2.09,0,0,0-1.3,2,1.88,1.88,0,0,0,.2.8,2.09,2.09,0,0,0,2,1.3,2.92,2.92,0,0,0,.9-.2,42.91,42.91,0,0,1,5-1.9,27.33,27.33,0,0,1,8.1-1.1,17.27,17.27,0,0,1,11.6,3.6c2.8,2.4,4.2,6.1,4.2,10.9v2c-2.3-.6-4.7-1.1-7.1-1.5a63.6,63.6,0,0,0-8.7-.6,34.11,34.11,0,0,0-8.5,1,19.77,19.77,0,0,0-6.6,3,14.53,14.53,0,0,0-4.3,4.9,14.09,14.09,0,0,0-1.6,6.7v.3A11.86,11.86,0,0,0,649,61a14.85,14.85,0,0,0,4.3,4.7,18.82,18.82,0,0,0,5.9,2.8,25.17,25.17,0,0,0,6.7.9,23.75,23.75,0,0,0,11.3-2.9,22.65,22.65,0,0,0,4-2.9,18.07,18.07,0,0,0,2.9-3.3v5.8a2.18,2.18,0,0,0,2.1,2.1h.2a2.22,2.22,0,0,0,2.2-2.2V38.3a19,19,0,0,0-5.1-13.1Zm.5,25.4a13.9,13.9,0,0,1-1.4,6,14.49,14.49,0,0,1-3.9,4.6,18.08,18.08,0,0,1-5.7,2.9,23.15,23.15,0,0,1-6.9,1.1,17.38,17.38,0,0,1-9.7-2.9,11.16,11.16,0,0,1-3.1-3.4,8.26,8.26,0,0,1-1.1-4.6v-.2a9.5,9.5,0,0,1,3.9-8,19.4,19.4,0,0,1,11.7-3,56.16,56.16,0,0,1,9.2.7c1.9.3,3.8.7,5.3,1.1A2.14,2.14,0,0,1,684,47C683.93,46.9,684,50.6,684,50.6Z"/><path class="cls-1" d="M747.23,0H747a2.22,2.22,0,0,0-2.2,2.2V31a36.79,36.79,0,0,0-3.4-4.4,26,26,0,0,0-4.3-3.8,18.9,18.9,0,0,0-5.4-2.5,20.66,20.66,0,0,0-6.6-.9,22.62,22.62,0,0,0-8.5,1.7,21,21,0,0,0-7.5,5,25.73,25.73,0,0,0-7.3,18.5v.2a25.18,25.18,0,0,0,2,10.5A23.41,23.41,0,0,0,716.63,68a22.62,22.62,0,0,0,8.5,1.7,20.52,20.52,0,0,0,6.5-1,20.1,20.1,0,0,0,5.3-2.6,22.12,22.12,0,0,0,4.3-3.8,38.65,38.65,0,0,0,3.5-4.5v8.5a2.22,2.22,0,0,0,2.2,2.2h.2a2.22,2.22,0,0,0,2.2-2.2V2.2a2.07,2.07,0,0,0-2.1-2.2Zm-2.1,44.7A20.9,20.9,0,0,1,739,59.6a19.33,19.33,0,0,1-6.3,4.2,18.27,18.27,0,0,1-14.5,0,16.48,16.48,0,0,1-6-4.1,19.34,19.34,0,0,1-4.1-6.5,24.55,24.55,0,0,1-1.5-8.5v-.2a23.28,23.28,0,0,1,1.5-8.6,17.76,17.76,0,0,1,4-6.4,17.55,17.55,0,0,1,6-4,20.16,20.16,0,0,1,7.3-1.4,18.35,18.35,0,0,1,7.3,1.5,19.52,19.52,0,0,1,10.6,10.7,22.11,22.11,0,0,1,1.7,8.4Z"/><path class="cls-2" d="M379,33.5a186.39,186.39,0,0,0-8.9,18.6,2.72,2.72,0,0,1-2.5,1.7,2.66,2.66,0,0,1-2.2-1.1l-9.6-13.1a3,3,0,0,1-.5-1.6,2.8,2.8,0,0,1,2.8-2.8,2.69,2.69,0,0,1,1.5.5l3.3,2.2a3,3,0,0,0,1.5.5,2.81,2.81,0,0,0,2.4-1.3c1.2-2,3.2-5.1,5.6-8.9a15.84,15.84,0,0,1,5.1,3.8,10.61,10.61,0,0,1,1.5,1.5Z"/><path class="cls-1" d="M184,55.4h-28.4a2.22,2.22,0,0,1-2.2-2.2V5a2.22,2.22,0,0,0-2.2-2.2h-10A2.22,2.22,0,0,0,139,5V66.4a2.22,2.22,0,0,0,2.2,2.2H184a2.22,2.22,0,0,0,2.2-2.2V57.6a2.22,2.22,0,0,0-2.2-2.2Z"/><path class="cls-1" d="M240.13,34.3a25.76,25.76,0,0,0-4.5-8.7,22.9,22.9,0,0,0-7.7-6.1A25.41,25.41,0,0,0,217,17.2a25,25,0,0,0-10.1,2.1,22.85,22.85,0,0,0-7.8,5.6,24.94,24.94,0,0,0-5.1,8.4,26.83,26.83,0,0,0-1.7,10.1v.2a27.62,27.62,0,0,0,1.9,10.6,24.16,24.16,0,0,0,5.5,8.2,23.32,23.32,0,0,0,8.4,5.4,29.26,29.26,0,0,0,10.6,1.9,27.08,27.08,0,0,0,11.9-2.5,22.87,22.87,0,0,0,7.1-5.2,2.36,2.36,0,0,0,.7-1.6,2,2,0,0,0-.7-1.6l-5.1-4.5a2.26,2.26,0,0,0-2.8-.1,20.46,20.46,0,0,1-4.4,2.8,15.51,15.51,0,0,1-6.4,1.2,12.7,12.7,0,0,1-8-2.5,10.12,10.12,0,0,1-3.5-4.4,2.92,2.92,0,0,1-.2-.9,2.22,2.22,0,0,1,2.2-2.2h32.1a10.89,10.89,0,0,1,.1-1.9,12,12,0,0,0,0-1.9,40.07,40.07,0,0,0-1.6-10.1ZM225,39.5H209a2.22,2.22,0,0,1-2.2-2.2,1.7,1.7,0,0,1,.1-.7,13.56,13.56,0,0,1,2.9-4.9,9.57,9.57,0,0,1,7.3-2.9,9.31,9.31,0,0,1,7.2,3,11.84,11.84,0,0,1,2.7,4.9,1.48,1.48,0,0,1,.1.7,2,2,0,0,1-2.1,2.1Z"/><path class="cls-1" d="M324.53,22A16.12,16.12,0,0,0,312,17.3a19.6,19.6,0,0,0-9.2,2,23.82,23.82,0,0,0-5.5,3.9,2.2,2.2,0,0,1-1.5.6,2.14,2.14,0,0,1-1.8-.9,12.86,12.86,0,0,0-4.1-3.6,18.23,18.23,0,0,0-8.6-2.1,16.14,16.14,0,0,0-4.9.7,15.88,15.88,0,0,0-4,1.8,13.51,13.51,0,0,0-3.2,2.6,25.23,25.23,0,0,0-2.7,3v-5a2.22,2.22,0,0,0-2.2-2.2h-9.9a2.22,2.22,0,0,0-2.2,2.2v46a2.22,2.22,0,0,0,2.2,2.2h9.9a2.22,2.22,0,0,0,2.2-2.2V40.5a10.92,10.92,0,0,1,2.3-7.6,8.29,8.29,0,0,1,6.3-2.5,7.69,7.69,0,0,1,6.2,2.6,11.52,11.52,0,0,1,2.2,7.6V66.4a2.22,2.22,0,0,0,2.2,2.2h9.9a2.22,2.22,0,0,0,2.2-2.2V40.5a10.92,10.92,0,0,1,2.3-7.6,8.29,8.29,0,0,1,6.3-2.5,7.69,7.69,0,0,1,6.2,2.6,11.52,11.52,0,0,1,2.2,7.6V66.4a2.22,2.22,0,0,0,2.2,2.2h9.9a2.22,2.22,0,0,0,2.2-2.2V35.8c-.1-6.1-1.6-10.7-4.6-13.8Z"/><path class="cls-1" d="M391.33,33.1a25.88,25.88,0,0,0-5.6-8.3c-.4-.3-.7-.7-1.1-1a26.84,26.84,0,0,0-6.4-4.1l-1.1-.5a28.46,28.46,0,0,0-10.8-2.1,29.34,29.34,0,0,0-10.9,2.1,27.17,27.17,0,0,0-8.6,5.6,25.88,25.88,0,0,0-5.6,8.3,25.52,25.52,0,0,0-2.1,10.2v.2a25.52,25.52,0,0,0,2.1,10.2,25.88,25.88,0,0,0,5.6,8.3,27.17,27.17,0,0,0,8.6,5.6,28.33,28.33,0,0,0,10.7,2.1A29.34,29.34,0,0,0,377,67.6a27.17,27.17,0,0,0,8.6-5.6,25.88,25.88,0,0,0,5.6-8.3,25.52,25.52,0,0,0,2.1-10.2v-.2a26.11,26.11,0,0,0-2-10.2Zm-9.4,10.6a17.6,17.6,0,0,1-1.1,6.4,18.9,18.9,0,0,1-3.1,5.3,17.24,17.24,0,0,1-4.9,3.6,16.54,16.54,0,0,1-6.6,1.3,14.64,14.64,0,0,1-6.5-1.4,16.3,16.3,0,0,1-8.3-9,15.44,15.44,0,0,1-1.1-6.4v-.2a20,20,0,0,1,1.1-6.4,16.77,16.77,0,0,1,3.1-5.3,17.24,17.24,0,0,1,4.9-3.6,16.88,16.88,0,0,1,6.6-1.3,15.6,15.6,0,0,1,6.4,1.3,15.84,15.84,0,0,1,5.1,3.8,12.38,12.38,0,0,1,1.4,1.8,17,17,0,0,1,1.9,3.5,17.32,17.32,0,0,1,1.2,6.4v.2Z"/><path class="cls-1" d="M445.33,22.3a18,18,0,0,0-17.5-4.4,13.84,13.84,0,0,0-3.9,1.8,13.51,13.51,0,0,0-3.2,2.6,25.23,25.23,0,0,0-2.7,3V20.4h0a2.22,2.22,0,0,0-2.2-2.2h-10a2.22,2.22,0,0,0-2.2,2.2v46a2.22,2.22,0,0,0,2.2,2.2h9.9a2.22,2.22,0,0,0,2.2-2.2V40.5a10.39,10.39,0,0,1,2.4-7.6,8.44,8.44,0,0,1,6.7-2.5,8.1,8.1,0,0,1,6.4,2.6,11.07,11.07,0,0,1,2.3,7.6V66.4a2.22,2.22,0,0,0,2.2,2.2h9.9a2.22,2.22,0,0,0,2.2-2.2V36a20.58,20.58,0,0,0-4.7-13.7Z"/><path class="cls-2" d="M379,33.5a186.39,186.39,0,0,0-8.9,18.6,2.72,2.72,0,0,1-2.5,1.7,2.66,2.66,0,0,1-2.2-1.1l-9.6-13.1a3,3,0,0,1-.5-1.6,2.8,2.8,0,0,1,2.8-2.8,2.69,2.69,0,0,1,1.5.5l3.3,2.2a3,3,0,0,0,1.5.5,2.81,2.81,0,0,0,2.4-1.3c1.2-2,3.2-5.1,5.6-8.9a15.84,15.84,0,0,1,5.1,3.8,10.61,10.61,0,0,1,1.5,1.5Z"/><path class="cls-3" d="M395.63,7c-3.6,5.1-7.4,10.8-11.1,16.9-1.9,3.1-3.8,6.4-5.5,9.7a186.39,186.39,0,0,0-8.9,18.6,2.72,2.72,0,0,1-2.5,1.7,2.66,2.66,0,0,1-2.2-1.1l-9.6-13.1a3,3,0,0,1-.5-1.6,2.8,2.8,0,0,1,2.8-2.8,2.69,2.69,0,0,1,1.5.5l3.3,2.2a3,3,0,0,0,1.5.5,2.81,2.81,0,0,0,2.4-1.3c1.2-2,3.2-5.1,5.6-8.9,1.7-2.5,3.6-5.3,5.8-8.3,3.8-5.1,8.2-10.8,13.1-16.2a2.66,2.66,0,0,1,2-.9,2.8,2.8,0,0,1,2.8,2.8,5.54,5.54,0,0,1-.5,1.3Z"/><g class="cls-4"><path class="cls-5" d="M160,125.3H145l-3.22,7.17h-2.95l12.26-26.82h2.8l12.26,26.82h-3Zm-1-2.3-6.44-14.4L146.05,123Z"/></g><g class="cls-4"><path class="cls-5" d="M225.54,105.65l-9,26.82h-3l-7.86-22.88-7.89,22.88h-2.95l-9-26.82h2.91l7.74,23.06,8-23.06h2.64L215,128.83l7.86-23.18Z"/><path class="cls-5" d="M234.83,113.2a9.68,9.68,0,0,1,4.69-1v2.64l-.65,0a6.44,6.44,0,0,0-5,2,7.79,7.79,0,0,0-1.8,5.48v10.27h-2.72V112.31H232v4A6.57,6.57,0,0,1,234.83,113.2Z"/><path class="cls-5" d="M261.79,123.23H244.93a7.17,7.17,0,0,0,2.41,5.08,8,8,0,0,0,5.52,1.94,8.84,8.84,0,0,0,3.45-.67,7.66,7.66,0,0,0,2.72-2l1.53,1.77a8.6,8.6,0,0,1-3.35,2.45,11.39,11.39,0,0,1-4.43.84,11.22,11.22,0,0,1-5.5-1.32,9.51,9.51,0,0,1-3.73-3.66,10.38,10.38,0,0,1-1.34-5.29,10.76,10.76,0,0,1,1.28-5.29,9.41,9.41,0,0,1,3.52-3.64,10,10,0,0,1,5-1.3,9.8,9.8,0,0,1,5,1.3,9.24,9.24,0,0,1,3.49,3.63,10.9,10.9,0,0,1,1.26,5.3Zm-14.62-6.87a7.23,7.23,0,0,0-2.24,4.84h14.29a7.32,7.32,0,0,0-2.24-4.84,6.92,6.92,0,0,0-4.93-1.86A6.83,6.83,0,0,0,247.17,116.36Z"/><path class="cls-5" d="M283.68,114.36c1.5,1.47,2.24,3.61,2.24,6.42v11.69H283.2V121.05a6.68,6.68,0,0,0-1.57-4.79,5.9,5.9,0,0,0-4.48-1.65,6.88,6.88,0,0,0-5.15,1.94,7.28,7.28,0,0,0-1.9,5.34v10.58h-2.72V112.31H270V116a7.47,7.47,0,0,1,3.09-2.85,9.82,9.82,0,0,1,4.58-1A8.25,8.25,0,0,1,283.68,114.36Z"/><path class="cls-5" d="M296.4,131.36a9.41,9.41,0,0,1-3.69-3.66,11.08,11.08,0,0,1,0-10.6,9.49,9.49,0,0,1,3.69-3.64,11,11,0,0,1,5.35-1.3,10.29,10.29,0,0,1,4.65,1,7.62,7.62,0,0,1,3.24,3l-2,1.38a6.35,6.35,0,0,0-2.53-2.25,7.59,7.59,0,0,0-3.33-.74,7.9,7.9,0,0,0-3.93,1,6.93,6.93,0,0,0-2.72,2.78,9.11,9.11,0,0,0,0,8.22,6.88,6.88,0,0,0,2.72,2.76,7.9,7.9,0,0,0,3.93,1,7.73,7.73,0,0,0,3.33-.73,6.27,6.27,0,0,0,2.53-2.22l2,1.38a7.65,7.65,0,0,1-3.26,3,10.32,10.32,0,0,1-4.63,1A10.84,10.84,0,0,1,296.4,131.36Z"/><path class="cls-5" d="M331,114.36c1.5,1.47,2.24,3.61,2.24,6.42v11.69h-2.72V121.05a6.68,6.68,0,0,0-1.57-4.79,5.88,5.88,0,0,0-4.48-1.65,6.88,6.88,0,0,0-5.15,1.94,7.28,7.28,0,0,0-1.9,5.34v10.58h-2.72V104h2.72v11.8a7.38,7.38,0,0,1,3.07-2.72,10,10,0,0,1,4.48-1A8.25,8.25,0,0,1,331,114.36Z"/></g><text class="cls-6" transform="translate(335.95 132.47)"> </text><g class="cls-4"><path class="cls-5" d="M360.7,131.94a12.9,12.9,0,0,1-5-4.89,14.33,14.33,0,0,1,0-14,12.82,12.82,0,0,1,5-4.89,14.76,14.76,0,0,1,7.2-1.76,15,15,0,0,1,5.52,1,11.57,11.57,0,0,1,4.29,2.92l-1.8,1.8A10.69,10.69,0,0,0,368,109a11.68,11.68,0,0,0-5.79,1.45,10.57,10.57,0,0,0-4.08,4,11.67,11.67,0,0,0,0,11.34,10.55,10.55,0,0,0,4.08,4,11.69,11.69,0,0,0,5.79,1.46,10.52,10.52,0,0,0,7.93-3.22l1.8,1.8a11.51,11.51,0,0,1-4.31,2.93,15.54,15.54,0,0,1-12.72-.74Z"/><path class="cls-5" d="M385.32,132.34a9.59,9.59,0,0,1-3.68-3.66,11.11,11.11,0,0,1,0-10.58,9.53,9.53,0,0,1,3.68-3.64,11.23,11.23,0,0,1,10.49,0,9.42,9.42,0,0,1,3.66,3.64,11.19,11.19,0,0,1,0,10.58,9.47,9.47,0,0,1-3.66,3.66,11.08,11.08,0,0,1-10.49,0Zm9.1-2.07a6.86,6.86,0,0,0,2.66-2.78,9.24,9.24,0,0,0,0-8.2,6.92,6.92,0,0,0-2.66-2.78,8.15,8.15,0,0,0-7.71,0,7,7,0,0,0-2.68,2.78,9.15,9.15,0,0,0,0,8.2,7,7,0,0,0,2.68,2.78,8.07,8.07,0,0,0,7.71,0Z"/><path class="cls-5" d="M437.44,115.35c1.45,1.45,2.17,3.6,2.17,6.43v11.69h-2.72V122.05a6.9,6.9,0,0,0-1.51-4.79,5.52,5.52,0,0,0-4.28-1.65,6.42,6.42,0,0,0-4.94,1.94,7.54,7.54,0,0,0-1.8,5.34v10.58h-2.72V122.05a6.9,6.9,0,0,0-1.51-4.79,5.57,5.57,0,0,0-4.32-1.65,6.44,6.44,0,0,0-4.92,1.94,7.5,7.5,0,0,0-1.82,5.34v10.58h-2.72V113.31H409V117a7.26,7.26,0,0,1,3-2.83,9.37,9.37,0,0,1,4.41-1,8.68,8.68,0,0,1,4.39,1.07,6.67,6.67,0,0,1,2.78,3.18,7.89,7.89,0,0,1,3.2-3.12,9.89,9.89,0,0,1,4.77-1.13A8,8,0,0,1,437.44,115.35Z"/><path class="cls-5" d="M462.52,114.45a9.15,9.15,0,0,1,3.6,3.62,10.7,10.7,0,0,1,1.31,5.32,10.84,10.84,0,0,1-1.31,5.37,9.3,9.3,0,0,1-3.58,3.62,10.38,10.38,0,0,1-5.15,1.28,9.51,9.51,0,0,1-4.43-1,8.42,8.42,0,0,1-3.24-3V140.9H447V113.31h2.61v4a8.45,8.45,0,0,1,3.24-3.07,9.54,9.54,0,0,1,4.54-1.07A10.29,10.29,0,0,1,462.52,114.45ZM461,130.27a6.89,6.89,0,0,0,2.7-2.78,8.48,8.48,0,0,0,1-4.1,8.37,8.37,0,0,0-1-4.08,7.08,7.08,0,0,0-2.7-2.78,8,8,0,0,0-7.69,0,7.17,7.17,0,0,0-2.68,2.78,8.37,8.37,0,0,0-1,4.08,8.48,8.48,0,0,0,1,4.1,7,7,0,0,0,2.68,2.78,8,8,0,0,0,7.69,0Z"/><path class="cls-5" d="M486,115.13a7.63,7.63,0,0,1,2.11,5.85v12.49h-2.61v-3.14a6.2,6.2,0,0,1-2.7,2.45,9.42,9.42,0,0,1-4.23.88,8.32,8.32,0,0,1-5.37-1.61,5.54,5.54,0,0,1-.13-8.39q1.86-1.57,5.92-1.57h6.4v-1.23a5.16,5.16,0,0,0-1.46-4,6,6,0,0,0-4.25-1.36,10.82,10.82,0,0,0-3.68.63,9.29,9.29,0,0,0-3,1.74l-1.22-2a10.7,10.7,0,0,1,3.68-2,14.36,14.36,0,0,1,4.52-.71A8.54,8.54,0,0,1,486,115.13Zm-3.06,15.33a6.37,6.37,0,0,0,2.45-3v-3.3H479q-5.18,0-5.18,3.6a3.31,3.31,0,0,0,1.34,2.78,6.11,6.11,0,0,0,3.76,1A7.21,7.21,0,0,0,482.91,130.46Z"/><path class="cls-5" d="M511.78,115.36q2.24,2.2,2.24,6.42v11.69H511.3V122.05a6.72,6.72,0,0,0-1.57-4.79,5.92,5.92,0,0,0-4.49-1.65,6.88,6.88,0,0,0-5.15,1.94,7.32,7.32,0,0,0-1.9,5.34v10.58h-2.72V113.31h2.61V117a7.5,7.5,0,0,1,3.08-2.85,9.84,9.84,0,0,1,4.58-1A8.29,8.29,0,0,1,511.78,115.36Z"/><path class="cls-5" d="M538,113.31l-10.07,22.57a9.68,9.68,0,0,1-2.84,4,6.33,6.33,0,0,1-3.87,1.18,7.85,7.85,0,0,1-2.72-.46,5.71,5.71,0,0,1-2.18-1.38l1.26-2a5,5,0,0,0,3.68,1.54,3.72,3.72,0,0,0,2.36-.77,7,7,0,0,0,1.82-2.61l.88-1.95-9-20.12h2.84l7.59,17.13,7.58-17.13Z"/></g><path class="cls-7" d="M57.76,2.93c-26.11,1-47.64,22.84-47.64,49a42.23,42.23,0,0,0,2,13.71L33.61,54.16c.33,0,.33-.32.33-.65,0-2.61-.66-14.68,9.79-23.82,14-12.4,31.32-7.51,37.52-2.94a1,1,0,0,1,0,1.31L62,38.5a4.75,4.75,0,0,0-2,2.94V51.55c0,2.29.33,2.94,2,3.59l9.79,5.22a3.49,3.49,0,0,0,3.59,0L93.65,50.25c.66-.33,1,0,1.31.65.33,7.18-3.26,24.8-22.52,30.35C59.06,85.16,49.27,78,47,76.68a.61.61,0,0,0-1,0L2,100.18c-3.27,1.95-1.63,5.54,1.63,4.89l28.72-6.53,25.45,34.27a2.45,2.45,0,0,0,3.91,0l35.57-48s12.08-13.71,12.08-32.31A49.82,49.82,0,0,0,57.76,2.93Z"/><path class="cls-7" d="M0,89.41c0,2,1,2.28,2.61,1.63,3.59-2,32.31-17.3,37.2-20.23.33-.33.65-.66.33-1A27.91,27.91,0,0,1,35.9,63c-.33-.32-.66-.65-1.31-.32l-32,17.29A4.62,4.62,0,0,0,0,83.86Z"/></g></g></svg>