<svg xmlns="http://www.w3.org/2000/svg" viewBox="0 0 165.64 60.51"><defs><style>.cls-1{fill:#f5333f;}.cls-2{fill:#202945;}.cls-3{fill:#758592;}</style></defs><title>wrenchFleetFullColor</title><g id="Layer_2" data-name="Layer 2"><g id="Layer_1-2" data-name="Layer 1"><path class="cls-1" d="M26.65,0a22.91,22.91,0,0,0-22,22.6A19,19,0,0,0,5.53,29l9.91-5.34a.37.37,0,0,0,.18-.31,13.88,13.88,0,0,1,4.57-11,14.37,14.37,0,0,1,17.28-1.3.37.37,0,0,1,0,.62l-8.93,4.89a1.69,1.69,0,0,0-.86,1.32v4.64c0,1.05.18,1.33.88,1.66l4.58,2.46a1.72,1.72,0,0,0,1.62,0L43.14,22a.36.36,0,0,1,.53.29A14,14,0,0,1,21.54,34.13a.35.35,0,0,0-.38,0L.86,45c-1.45.87-.69,2.62.77,2.2l13.25-3L26.64,60.11a1.2,1.2,0,0,0,1.79,0L44.89,37.88a24.85,24.85,0,0,0,5.57-15A22.91,22.91,0,0,0,26.65,0Z"/><path class="cls-1" d="M0,39.94c0,.86.44,1.1,1.18.7L18.44,31.3a.32.32,0,0,0,.1-.51,14.65,14.65,0,0,1-1.95-3.12.4.4,0,0,0-.56-.22l-14.79,8A2.05,2.05,0,0,0,0,37.35Z"/><path class="cls-2" d="M65.07,15a.39.39,0,0,1-.39.3h-2a.38.38,0,0,1-.37-.3L59.79,5.44a.24.24,0,0,1,.22-.3h2a.39.39,0,0,1,.37.3l1.42,5.5a.07.07,0,0,0,.14,0l1.64-5.5a.4.4,0,0,1,.38-.3h1.61a.4.4,0,0,1,.38.3l1.65,5.49a.07.07,0,0,0,.13,0l1.42-5.49a.39.39,0,0,1,.37-.3h2a.25.25,0,0,1,.23.3L71.28,15a.39.39,0,0,1-.37.3h-2a.39.39,0,0,1-.38-.3L66.88,9.64a.08.08,0,0,0-.15,0Z"/><path class="cls-2" d="M74.89,5.45a.3.3,0,0,1,.29-.31h4.41A3.4,3.4,0,0,1,83.2,8.85a3.62,3.62,0,0,1-1.68,3.25.22.22,0,0,0-.07.33L83.21,15a.16.16,0,0,1-.12.26H80.73a.57.57,0,0,1-.47-.26l-1.51-2.25a.47.47,0,0,0-.39-.21h-.77a.26.26,0,0,0-.25.26V15a.3.3,0,0,1-.29.31H75.18a.3.3,0,0,1-.29-.31Zm4.57,2.06H77.59a.26.26,0,0,0-.25.26V10a.26.26,0,0,0,.25.26h1.87a1.24,1.24,0,0,0,1.36-1.34A1.22,1.22,0,0,0,79.46,7.51Z"/><path class="cls-2" d="M84.89,15.28A.3.3,0,0,1,84.6,15V5.45a.3.3,0,0,1,.29-.31H91.7a.31.31,0,0,1,.3.31v1.9a.31.31,0,0,1-.3.31H87.31a.25.25,0,0,0-.24.26v.94a.25.25,0,0,0,.24.26h3.51a.31.31,0,0,1,.3.31v1.73a.31.31,0,0,1-.3.31H87.31a.25.25,0,0,0-.24.26v.78a.25.25,0,0,0,.24.26H91.7a.32.32,0,0,1,.3.31V15a.31.31,0,0,1-.3.31Z"/><path class="cls-2" d="M95.91,15a.3.3,0,0,1-.29.31H93.74a.31.31,0,0,1-.3-.31V5.45a.31.31,0,0,1,.3-.31h1.5a.6.6,0,0,1,.49.25l4,5.21c0,.08.15,0,.15,0V5.45a.31.31,0,0,1,.3-.31H102a.31.31,0,0,1,.3.31V15a.31.31,0,0,1-.3.31h-1.49A.6.6,0,0,1,100,15l-4-5.21c0-.07-.15,0-.15.06Z"/><path class="cls-2" d="M110.85,11.8a.33.33,0,0,1,.43-.15l1.72.8a.29.29,0,0,1,.11.39,5.09,5.09,0,0,1-4.42,2.64,5.27,5.27,0,0,1,0-10.54,5.11,5.11,0,0,1,4.41,2.62A.3.3,0,0,1,113,8l-1.7.79a.3.3,0,0,1-.43-.13,2.61,2.61,0,0,0-2.16-1.17,2.69,2.69,0,0,0-2.62,2.76A2.68,2.68,0,0,0,108.69,13,2.59,2.59,0,0,0,110.85,11.8Z"/><path class="cls-2" d="M120.75,5.45a.31.31,0,0,1,.3-.31h1.88a.31.31,0,0,1,.3.31V15a.31.31,0,0,1-.3.31h-1.88a.31.31,0,0,1-.3-.31v-3.2a.25.25,0,0,0-.24-.26h-3.44a.25.25,0,0,0-.24.26V15a.31.31,0,0,1-.3.31h-1.87a.3.3,0,0,1-.29-.31V5.45a.3.3,0,0,1,.29-.31h1.87a.31.31,0,0,1,.3.31V8.82a.25.25,0,0,0,.24.26h3.44a.25.25,0,0,0,.24-.26Z"/><path class="cls-2" d="M56.17,44a.63.63,0,0,1-.63-.77l4.52-23.55a1,1,0,0,1,.92-.77H78.06a.62.62,0,0,1,.62.77l-.9,4.7a1,1,0,0,1-.92.77H66.05a.81.81,0,0,0-.76.64l-.61,3.16a.52.52,0,0,0,.52.64h8.85a.62.62,0,0,1,.62.77l-.82,4.28a1,1,0,0,1-.92.77H64.09a.82.82,0,0,0-.77.65L61.94,43.2A1,1,0,0,1,61,44Z"/><path class="cls-2" d="M76.91,44a.63.63,0,0,1-.63-.77L80.8,19.65a1,1,0,0,1,.91-.77h4.86a.63.63,0,0,1,.63.77L83.85,37.12a.52.52,0,0,0,.52.64H95a.63.63,0,0,1,.62.78l-.89,4.66a1,1,0,0,1-.92.77Z"/><path class="cls-2" d="M97,44a.63.63,0,0,1-.62-.77l4.51-23.55a1,1,0,0,1,.92-.77h17.73a.62.62,0,0,1,.62.77l-.9,4.7a1,1,0,0,1-.92.77H107a.81.81,0,0,0-.76.64l-.45,2.32a.52.52,0,0,0,.52.64h9.14a.63.63,0,0,1,.62.77l-.82,4.28a1,1,0,0,1-.92.78h-9.13a.82.82,0,0,0-.77.64L104,37.12a.52.52,0,0,0,.52.64H116a.63.63,0,0,1,.62.78l-.89,4.66a1,1,0,0,1-.92.77Z"/><path class="cls-2" d="M118.82,44a.63.63,0,0,1-.63-.77l4.52-23.55a1,1,0,0,1,.92-.77h17.72a.63.63,0,0,1,.63.77l-.9,4.7a1,1,0,0,1-.92.77H128.74a.82.82,0,0,0-.77.64l-.44,2.32a.51.51,0,0,0,.52.64h9.13a.63.63,0,0,1,.63.77L137,33.77a1,1,0,0,1-.92.78h-9.14a.83.83,0,0,0-.77.64l-.37,1.93a.52.52,0,0,0,.52.64h11.42a.64.64,0,0,1,.63.78l-.9,4.66a1,1,0,0,1-.92.77Z"/><path class="cls-2" d="M143.28,25.12a.62.62,0,0,1-.62-.77l.9-4.7a1,1,0,0,1,.92-.77H165a.62.62,0,0,1,.62.77l-.9,4.7a1,1,0,0,1-.92.77h-6.4a.81.81,0,0,0-.76.64L153.29,43.2a1,1,0,0,1-.92.77h-4.89a.63.63,0,0,1-.62-.77l3.34-17.44a.51.51,0,0,0-.52-.64Z"/><path class="cls-3" d="M52.52,56.49a.54.54,0,0,1,.48-.43h2.08c.36,0,.42.08.55.4s.7.77,1.78.77,1.59-.39,1.66-.74c.1-.51-.45-.82-1.8-1.31-1.79-.63-4.13-1.56-3.67-4,.44-2.29,2.66-3.72,5.4-3.72s4.49,1.46,4.24,3.62a.55.55,0,0,1-.48.43H60.61c-.29,0-.4-.14-.44-.42-.09-.51-.59-1-1.6-1S57,50.5,57,50.9s.42.72,1.76,1.22c1.55.58,4.2,1.57,3.7,4.2-.44,2.34-2.7,3.57-5.44,3.57S52.32,58.69,52.52,56.49Z"/><path class="cls-3" d="M63.72,53.66a8,8,0,0,1,7.55-6.24,5.09,5.09,0,0,1,5.2,6.24,8,8,0,0,1-7.55,6.23A5.1,5.1,0,0,1,63.72,53.66Zm3.11,0a2.62,2.62,0,0,0,2.65,3.26,4.07,4.07,0,0,0,3.88-3.26,2.61,2.61,0,0,0-2.65-3.27A4.12,4.12,0,0,0,66.83,53.66Z"/><path class="cls-3" d="M76.76,59.66a.3.3,0,0,1-.3-.37L78.58,48a.48.48,0,0,1,.44-.37h2.33a.31.31,0,0,1,.3.37l-1.58,8.36a.25.25,0,0,0,.25.31h5.09a.31.31,0,0,1,.3.37l-.42,2.23a.48.48,0,0,1-.44.37Z"/><path class="cls-3" d="M96.1,48a.47.47,0,0,1,.44-.37h2.32a.3.3,0,0,1,.3.37L98,54.41a6.46,6.46,0,0,1-6.56,5.48c-3.61,0-5.07-2.38-4.48-5.48L88.12,48a.47.47,0,0,1,.44-.37H90.9a.3.3,0,0,1,.3.37L90,54.23c-.33,1.74.33,2.69,1.93,2.69a2.88,2.88,0,0,0,3-2.69Z"/><path class="cls-3" d="M100.32,50.64a.3.3,0,0,1-.3-.37l.42-2.25a.48.48,0,0,1,.44-.37h9.83a.3.3,0,0,1,.3.37l-.42,2.25a.48.48,0,0,1-.44.37h-3.07a.37.37,0,0,0-.36.3l-1.57,8.35a.48.48,0,0,1-.44.37h-2.35a.31.31,0,0,1-.3-.37l1.57-8.35a.24.24,0,0,0-.25-.3Z"/><path class="cls-3" d="M112.41,48a.48.48,0,0,1,.44-.37h2.35a.31.31,0,0,1,.3.37l-2.12,11.27a.48.48,0,0,1-.44.37h-2.35a.31.31,0,0,1-.3-.37Z"/><path class="cls-3" d="M115.71,53.66a8,8,0,0,1,7.56-6.24,5.09,5.09,0,0,1,5.2,6.24,8,8,0,0,1-7.55,6.23A5.11,5.11,0,0,1,115.71,53.66Zm3.12,0a2.62,2.62,0,0,0,2.65,3.26,4.07,4.07,0,0,0,3.88-3.26,2.61,2.61,0,0,0-2.65-3.27A4.11,4.11,0,0,0,118.83,53.66Z"/><path class="cls-3" d="M131.77,59.29a.48.48,0,0,1-.44.37H129a.3.3,0,0,1-.3-.37L130.81,48a.48.48,0,0,1,.44-.37h1.88a.61.61,0,0,1,.54.29l3.79,6.18c0,.09.17,0,.19-.06l1.14-6a.48.48,0,0,1,.44-.37h2.32a.3.3,0,0,1,.3.37l-2.12,11.27a.46.46,0,0,1-.43.37h-1.87a.59.59,0,0,1-.54-.29l-3.79-6.16c0-.09-.18-.05-.2.06Z"/><path class="cls-3" d="M141.69,56.49a.54.54,0,0,1,.48-.43h2.08c.36,0,.42.08.54.4s.71.77,1.78.77,1.6-.39,1.67-.74c.09-.51-.45-.82-1.8-1.31-1.8-.63-4.13-1.56-3.67-4,.43-2.29,2.66-3.72,5.4-3.72s4.49,1.46,4.24,3.62a.55.55,0,0,1-.49.43h-2.14c-.29,0-.4-.14-.44-.42-.09-.51-.59-1-1.61-1s-1.54.42-1.61.82.42.72,1.76,1.22c1.55.58,4.2,1.57,3.7,4.2-.44,2.34-2.7,3.57-5.44,3.57S141.49,58.69,141.69,56.49Z"/></g></g></svg>